<svg xmlns="http://www.w3.org/2000/svg" viewBox="0 0 71.34 102.5"><defs><style>.cls-1{fill:#a6d7d3;}.cls-2,.cls-3{fill:none;stroke-miterlimit:10;stroke-width:6px;}.cls-2{stroke:#f5ec85;}.cls-3{stroke:#d8cf7b;}</style></defs><g id="Слой_2" data-name="Слой 2"><g id="Click"><rect class="cls-1" width="71.34" height="102.5"/><path class="cls-2" d="M17.19,92.43c21,.95,26.19-1.66,26.93-4.28,1.32-4.73-11.76-9.37-11.34-17.29.52-10,22-13.76,21.35-21-.57-6.61-18.69-7.56-19.43-14.7C34,28.23,50.3,23.58,49.51,18c-.41-2.87-5.37-6.18-25.38-8.16"/><path class="cls-3" d="M37.68,55.7c-5-5.44-6.89-6.07-7.72-5.61-1.5.84.59,5.23-1.47,7.09-2.61,2.34-8.85-2-10.5-.08-1.49,1.77,2.76,6.5,1.18,8.45s-6.73-1-7.91.57c-.6.81-.2,2.85,4.27,8.3"/><path class="cls-3" d="M60.92,92.63C65.6,87,66,85,65.38,84.2c-1-1.37-5.09,1.32-7.22-.47-2.69-2.25.77-9-1.39-10.4-2-1.23-6.05,3.64-8.2,2.35s0-6.8-1.67-7.75c-.89-.48-2.86.21-7.62,5.39"/><path class="cls-3" d="M53.79,34.94c-.84-7.31-2-8.95-3-9.06-1.71-.2-2.59,4.58-5.35,4.88-3.48.37-6-6.84-8.45-6.22-2.25.57-1.58,6.88-4,7.54s-4.86-4.76-6.74-4.17c-1,.3-1.84,2.2-1.41,9.22"/></g></g></svg>