<svg xmlns="http://www.w3.org/2000/svg" viewBox="0 0 30.69 47.96"><defs><style>.cls-1{fill:#fff;}</style></defs><g id="Слой_2" data-name="Слой 2"><g id="Click"><path class="cls-1" d="M.21,47.88c1.17.78,5.65-4.25,12.55-12C24.86,22.3,25.1,19.39,24.43,17.49A7.5,7.5,0,0,0,17,12.87c-3.4.51-4.67,4.42-11,19.49C.88,44.38-.61,47.33.21,47.88Z"/><path class="cls-1" d="M23,13.56a4.67,4.67,0,0,1-2.21-1.32A5.25,5.25,0,0,1,19.66,8c.2-.92.6-1.44,2.2-3.31C25.79.09,26.19-.09,26.38,0s0,1.48-.55,4.07c-.44,1.94-.76,2.85-.33,3.2s1.32,0,2-.33c1.25-.54,1.54-1.14,2.09-1s.88,1.06,1,1.43a3.51,3.51,0,0,1,0,1.87,5.34,5.34,0,0,1-1.41,2.54,6.42,6.42,0,0,1-4,1.94A5.35,5.35,0,0,1,23,13.56Z"/></g></g></svg>