<svg xmlns="http://www.w3.org/2000/svg" viewBox="0 0 54.14 65.91"><defs><style>.cls-1,.cls-2{fill:none;stroke:#fff;stroke-miterlimit:10;}.cls-1{stroke-width:2px;}.cls-2{stroke-width:0.75px;}</style></defs><g id="Слой_2" data-name="Слой 2"><g id="Click"><polygon class="cls-1" points="9.86 1 44.6 1 53 64.91 27.66 64.91 1.15 64.91 9.86 1"/><line class="cls-1" x1="3.55" y1="47.25" x2="50.77" y2="47.25"/><line class="cls-1" x1="7.53" y1="18.05" x2="46.84" y2="18.05"/><polygon class="cls-2" points="29.01 35.7 34.67 37.77 31.44 41.21 29.01 35.7"/><polygon class="cls-2" points="27.7 35.58 24.42 40.63 21.79 36.71 27.7 35.58"/><polygon class="cls-2" points="27.7 35.58 24.42 40.63 21.79 36.71 27.7 35.58"/><polygon class="cls-2" points="28.49 34.28 26.73 28.52 31.43 29.03 28.49 34.28"/><path class="cls-2" d="M27.49,27a8.18,8.18,0,0,1,3.1.51l.84-2.37a11.41,11.41,0,0,0-12,3.81l.94.55,1.11.4A8.17,8.17,0,0,1,27.49,27Z"/></g></g></svg>