<svg xmlns="http://www.w3.org/2000/svg" viewBox="0 0 63.15 53.55"><defs><style>.cls-1,.cls-3{fill:none;stroke:#fff;}.cls-1{stroke-linecap:round;stroke-linejoin:round;stroke-width:3px;}.cls-2{fill:#fff;}.cls-3{stroke-miterlimit:10;}</style></defs><g id="Слой_2" data-name="Слой 2"><g id="Click"><path class="cls-1" d="M38.65,52h-11c-11.17.28-10-4.87-18.09-12.59-4.33-4.14-8-8.17-8-9.88,0-4.13,4.71-3.13,4.71-3.13l11,9.49V4.47a3.26,3.26,0,0,1,3.42-3A3.64,3.64,0,0,1,24.4,4.64V24.37s-.6-6.52,3.44-6.52c4.63,0,4.14,8.27,4.14,8.27s-.46-7,3.54-7c4.76,0,4,8.59,4,8.59s-.33-6.36,3.62-6.36c3.77,0,3.47,4.54,3.47,4.54v8.66S44.59,52,38.65,52Z"/><path class="cls-2" d="M39.74,24.88h-.26c0,.48.06.92.06,1.31A9.73,9.73,0,0,1,39.74,24.88Z"/><line class="cls-3" x1="50.27" y1="0.43" x2="50.27" y2="26.19"/><line class="cls-3" x1="63.15" y1="13.31" x2="37.39" y2="13.31"/></g></g></svg>