<svg xmlns="http://www.w3.org/2000/svg" viewBox="0 0 71.34 102.5"><defs><style>.cls-1{fill:#51ae33;}.cls-2{fill:#90c363;}.cls-3{fill:#aed081;}</style></defs><g id="Слой_2" data-name="Слой 2"><g id="Click"><rect class="cls-1" width="71.34" height="102.5"/><rect class="cls-2" x="23.3" y="72.77" width="4.73" height="41.17" transform="translate(119.03 67.69) rotate(90)"/><rect class="cls-3" x="43.3" y="67.16" width="4.73" height="41.17" transform="translate(133.41 42.07) rotate(90)"/><rect class="cls-2" x="23.3" y="61.54" width="4.73" height="41.17" transform="translate(107.8 56.46) rotate(90)"/><rect class="cls-3" x="43.3" y="55.93" width="4.73" height="41.17" transform="translate(122.18 30.84) rotate(90)"/><rect class="cls-2" x="23.3" y="50.31" width="4.73" height="41.17" transform="translate(96.57 45.23) rotate(90)"/><rect class="cls-3" x="43.3" y="44.7" width="4.73" height="41.17" transform="translate(110.95 19.61) rotate(90)"/><rect class="cls-2" x="23.3" y="39.08" width="4.73" height="41.17" transform="translate(85.34 34) rotate(90)"/><rect class="cls-3" x="43.3" y="33.47" width="4.73" height="41.17" transform="translate(99.72 8.39) rotate(90)"/><rect class="cls-2" x="23.3" y="27.85" width="4.73" height="41.17" transform="translate(74.11 22.77) rotate(90)"/><rect class="cls-3" x="43.3" y="22.24" width="4.73" height="41.17" transform="translate(88.5 -2.84) rotate(90)"/><rect class="cls-2" x="23.3" y="16.62" width="4.73" height="41.17" transform="translate(62.88 11.54) rotate(90)"/><rect class="cls-3" x="43.3" y="11.01" width="4.73" height="41.17" transform="translate(77.27 -14.07) rotate(90)"/><rect class="cls-2" x="23.3" y="5.39" width="4.73" height="41.17" transform="translate(51.65 0.31) rotate(90)"/><rect class="cls-3" x="43.3" y="-0.22" width="4.73" height="41.17" transform="translate(66.04 -25.3) rotate(90)"/><rect class="cls-2" x="23.3" y="-5.83" width="4.73" height="41.17" transform="translate(40.42 -10.92) rotate(90)"/><rect class="cls-3" x="43.3" y="-11.45" width="4.73" height="41.17" transform="translate(54.81 -36.53) rotate(90)"/></g></g></svg>