<svg xmlns="http://www.w3.org/2000/svg" viewBox="0 0 71.34 102.5"><defs><style>.cls-1{fill:#e0b5d6;}.cls-2{fill:#e6a1a9;}.cls-3{fill:#d1697a;}.cls-4{fill:#8d4958;}</style></defs><g id="Слой_2" data-name="Слой 2"><g id="Click"><rect class="cls-1" width="71.34" height="102.5"/><path class="cls-2" d="M35.94,72.67c-4.34-3.17-9.4-4-12.22-2-4,3-2.32,11,.88,15.63,3.55,5.09,9.81,6.32,11.37,6.61"/><rect class="cls-3" x="35.94" width="35.4" height="102.5"/><path class="cls-4" d="M48.22,70.69l-.31-.2C47,72.11,46,73.94,45.85,74a18.22,18.22,0,0,0,2.73.33L41.64,84,45.73,75,42,75.21l3.71-5.54c-2.82-.46-6.49.63-9.74,3l0,20.26c1.56-.29,7.82-1.52,11.37-6.61C50.54,81.73,52.24,73.64,48.22,70.69Z"/><path class="cls-2" d="M36,55.88c-2.71-2-5.88-2.53-7.64-1.24-2.52,1.85-1.45,6.91.55,9.78,2.22,3.18,6.13,4,7.11,4.13"/><path class="cls-4" d="M43.63,54.64l-.19-.12c-.58,1-1.23,2.16-1.29,2.2a10.67,10.67,0,0,0,1.7.21l-4.33,6,2.55-5.57-2.35.1L42,54A8.63,8.63,0,0,0,36,55.88l0,12.67c1-.18,4.89-1,7.11-4.13C45.08,61.55,46.15,56.49,43.63,54.64Z"/><path class="cls-2" d="M36,44.89c-1.7-1.24-3.68-1.58-4.78-.77-1.57,1.15-.91,4.32.35,6.11A7,7,0,0,0,36,52.81"/><path class="cls-4" d="M40.76,44.12,40.64,44c-.36.63-.77,1.35-.81,1.38a6.81,6.81,0,0,0,1.07.13l-2.71,3.76,1.6-3.49-1.47.07,1.45-2.17A5.42,5.42,0,0,0,36,44.89v7.92a7,7,0,0,0,4.44-2.58C41.66,48.44,42.33,45.27,40.76,44.12Z"/><path class="cls-2" d="M36,44.89c-1.7-1.24-3.68-1.58-4.78-.77-1.57,1.15-.91,4.32.35,6.11A7,7,0,0,0,36,52.81"/><path class="cls-4" d="M40.76,44.12,40.64,44c-.36.63-.77,1.35-.81,1.38a6.81,6.81,0,0,0,1.07.13l-2.71,3.76,1.6-3.49-1.47.07,1.45-2.17A5.42,5.42,0,0,0,36,44.89v7.92a7,7,0,0,0,4.44-2.58C41.66,48.44,42.33,45.27,40.76,44.12Z"/><path class="cls-2" d="M36,37.31a2.5,2.5,0,0,0-2.76-.45c-.91.67-.53,2.5.2,3.54A4,4,0,0,0,36,41.89"/><path class="cls-4" d="M38.74,36.86l-.07,0c-.2.37-.44.78-.46.8a3.66,3.66,0,0,0,.61.07l-1.57,2.18.93-2-.85,0,.84-1.25a3.1,3.1,0,0,0-2.21.68v4.58a4,4,0,0,0,2.57-1.49C39.27,39.36,39.65,37.53,38.74,36.86Z"/><path class="cls-2" d="M36,31a1.57,1.57,0,0,0-1.72-.27c-.56.41-.32,1.55.13,2.19a2.51,2.51,0,0,0,1.59.93"/><path class="cls-4" d="M37.69,30.77l0,0c-.12.23-.27.48-.28.49a2.06,2.06,0,0,0,.38.05l-1,1.35.57-1.25-.53,0,.52-.78A2,2,0,0,0,36,31v2.85A2.51,2.51,0,0,0,37.56,33C38,32.32,38.25,31.18,37.69,30.77Z"/></g></g></svg>