<svg xmlns="http://www.w3.org/2000/svg" viewBox="0 0 68.78 68.78"><defs><style>.cls-1,.cls-2{fill:none;}.cls-1,.cls-3{stroke:#fff;stroke-miterlimit:10;stroke-width:2px;}.cls-3{fill:#fff;}</style></defs><g id="Слой_2" data-name="Слой 2"><g id="Click"><text/><path class="cls-1" d="M39.66,26.15a3.69,3.69,0,0,1-.87-1.42L2.08,61.44A3.72,3.72,0,0,0,7.34,66.7L44.05,30a3.69,3.69,0,0,1-1.42-.87Z"/><path class="cls-2" d="M53.23,18.88A3.6,3.6,0,0,0,52.48,17Z"/><path class="cls-3" d="M36.63,25.86l1.8-1.8L37,22.64A3.75,3.75,0,0,0,36.63,25.86Z"/><path class="cls-3" d="M52.15,17.3a3.72,3.72,0,0,1,.75,1.91l1.38,3.52L55,22a3.74,3.74,0,0,0,0-5.26l-3-3a3.74,3.74,0,0,0-5.26,0l-.74.75,3.51,1.38a3.7,3.7,0,0,1,1.91.76l.11,0,0,0,.28.23c.09.09.15.19.23.28l0,0Z"/><path class="cls-3" d="M44.72,30.35l-1.8,1.8a3.71,3.71,0,0,0,3.22-.38Z"/><path class="cls-1" d="M46.39,14.17,17.24,2.69,37.62,23.07a3.55,3.55,0,0,1,.48-.62Z"/><path class="cls-1" d="M45.71,31.16,66.09,51.54,54.61,22.39l-8.28,8.29A3.55,3.55,0,0,1,45.71,31.16Z"/></g></g></svg>