<svg xmlns="http://www.w3.org/2000/svg" viewBox="0 0 45.6 45.6"><defs><style>.cls-1{fill:none;stroke:#fff;stroke-linecap:round;stroke-linejoin:round;stroke-width:2px;}</style></defs><g id="Слой_2" data-name="Слой 2"><g id="Казино"><path class="cls-1" d="M28.4,8.32V1H17.2V8.32a15.46,15.46,0,0,1,11.2,0Z"/><path class="cls-1" d="M17.2,37.28V44.6H28.4V37.28a15.46,15.46,0,0,1-11.2,0Z"/><path class="cls-1" d="M37.28,28.4H44.6V17.2H37.28a15.46,15.46,0,0,1,0,11.2Z"/><path class="cls-1" d="M8.32,17.2H1V28.4H8.32a15.46,15.46,0,0,1,0-11.2Z"/><path class="cls-1" d="M37,16.52l5.18-5.18L34.26,3.43,29.08,8.6A15.57,15.57,0,0,1,37,16.52Z"/><path class="cls-1" d="M8.6,29.08,3.43,34.26l7.91,7.92L16.52,37A15.57,15.57,0,0,1,8.6,29.08Z"/><path class="cls-1" d="M29.08,37l5.18,5.18,7.92-7.92L37,29.08A15.53,15.53,0,0,1,29.08,37Z"/><path class="cls-1" d="M16.52,8.6,11.34,3.43,3.43,11.34,8.6,16.52A15.61,15.61,0,0,1,16.52,8.6Z"/></g></g></svg>